<?xml version="1.0" encoding="UTF-8"?>
<svg xmlns="http://www.w3.org/2000/svg" xmlns:xlink="http://www.w3.org/1999/xlink" width="60px" height="60px" viewBox="0 0 60 60" version="1.1">
<g id="surface1">
<path style=" stroke:none;fill-rule:nonzero;fill:rgb(3.921569%,27.843137%,94.117647%);fill-opacity:1;" d="M 8.625 22.5 C 10.6875 22.5 12.5625 20.8125 12.5625 18.5625 C 12.5625 16.3125 10.875 14.625 8.625 14.625 C 6.375 14.625 4.6875 16.3125 4.6875 18.5625 C 4.6875 20.8125 6.375 22.5 8.625 22.5 Z M 24.375 24.75 L 12 39.1875 C 12 39.1875 12 39.375 11.625 39.1875 C 11.4375 39.1875 11.4375 39 11.4375 38.8125 L 11.4375 27.9375 C 11.4375 26.25 10.125 24.9375 8.4375 24.9375 C 6.75 24.9375 5.4375 26.25 5.4375 27.9375 L 5.4375 38.8125 C 5.4375 41.4375 7.125 43.6875 9.5625 44.625 C 10.3125 44.8125 11.0625 45 11.8125 45 C 13.6875 45 15.375 44.25 16.5 42.75 L 24 33.9375 C 23.4375 31.875 23.25 29.8125 23.625 27.5625 C 23.625 26.4375 24 25.5 24.375 24.5625 Z M 55.3125 28.875 C 55.3125 27 54.5625 25.125 53.8125 23.25 C 52.875 21.375 51.75 19.875 50.25 18.5625 C 48.75 17.25 46.875 16.125 45 15.5625 C 43.125 15 41.0625 14.625 39.1875 14.8125 C 37.125 14.8125 35.25 15.5625 33.5625 16.3125 C 32.625 16.6875 31.875 17.25 31.125 17.8125 C 32.0625 17.8125 33 18.1875 33.75 18.75 C 34.125 19.125 34.5 19.5 34.6875 20.0625 C 34.875 20.625 35.0625 21 35.0625 21.5625 C 35.0625 21.5625 35.0625 21.9375 35.0625 22.125 C 36.375 21.1875 38.0625 20.625 39.5625 20.625 C 42 20.625 44.625 21.1875 46.5 22.875 C 48.375 24.5625 49.5 26.8125 49.6875 29.25 C 49.875 31.6875 49.125 34.125 47.625 36 C 45.9375 37.875 43.6875 39.1875 41.25 39.375 C 38.8125 39.5625 36.1875 38.8125 34.3125 37.125 C 32.4375 35.4375 31.3125 33.1875 31.125 30.75 C 30.9375 28.3125 31.6875 25.875 33.375 24 C 34.5 22.6875 34.3125 21 33 19.875 C 32.4375 19.5 31.6875 19.125 31.125 19.125 C 30.375 19.125 29.4375 19.5 28.875 20.25 C 27.5625 21.75 26.625 23.625 26.0625 25.5 C 25.5 27.375 25.3125 29.25 25.5 31.3125 C 25.5 33.1875 26.25 35.25 27 36.9375 C 27.9375 38.8125 29.25 40.3125 30.75 41.625 C 32.25 42.9375 34.125 43.875 36.1875 44.625 C 37.6875 45 39.1875 45.375 40.6875 45.375 C 42.1875 45.375 41.625 45.375 42 45.375 C 44.0625 45.375 45.9375 44.625 47.625 43.6875 C 49.5 42.75 51 41.4375 52.3125 39.9375 C 53.625 38.4375 54.5625 36.5625 55.125 34.6875 C 55.6875 32.8125 55.875 30.9375 55.6875 29.0625 Z M 55.3125 28.875 "/>
</g>
</svg>
