<svg width="32" height="32" viewBox="0 0 32 32" fill="none" xmlns="http://www.w3.org/2000/svg">
<g id="y/ic_yape_link">
<path id="color&#240;&#159;&#142;&#168;" fill-rule="evenodd" clip-rule="evenodd" d="M29.2096 14.0027C30.254 21.2791 25.189 28.0694 17.8973 29.169C15.7812 29.488 13.7104 29.2927 11.8111 28.6771C11.3538 28.5289 10.9165 28.3304 10.4709 28.1607C10.1015 28.0201 8.67005 28.3995 6.17648 29.2989C6.05257 29.3436 5.9182 29.3506 5.79033 29.319C5.4726 29.2405 5.26493 28.9463 5.28474 28.6308L5.30306 28.5119L5.39114 28.1453C5.86495 26.1124 5.90904 24.836 5.52341 24.3163L5.03417 23.6541L4.80113 23.3135C3.78546 21.7536 3.08518 19.952 2.80303 17.9846C1.75832 10.7074 6.82266 3.9175 14.115 2.81792C21.4067 1.7183 28.1649 6.72595 29.2096 14.0027ZM14.5126 5.45478C8.66741 6.33615 4.60643 11.7809 5.44268 17.606C5.64175 18.994 6.10305 20.2992 6.79624 21.4724L7.03585 21.8585C7.11397 21.9785 7.19174 22.0895 7.32422 22.2695L7.665 22.7273C8.23333 23.4933 8.47314 24.3777 8.46651 25.4834L8.45984 25.7345L8.62802 25.6911C9.7892 25.3954 10.5456 25.3749 11.2743 25.6167L11.5552 25.7208L12.3698 26.0466L12.552 26.1132L12.6333 26.1404C14.1844 26.6432 15.8388 26.7825 17.4997 26.5321C23.2341 25.6674 27.252 20.4094 26.6121 14.7108L26.57 14.3817C25.7359 8.57192 20.3426 4.57559 14.5126 5.45478ZM21.5126 11.7895C21.8004 11.1117 22.5831 10.7955 23.261 11.0832C23.8904 11.3504 24.208 12.0444 24.0198 12.6849L23.9673 12.8315L19.7995 22.6502C19.5118 23.3281 18.7291 23.6443 18.0512 23.3566C17.4218 23.0894 17.1041 22.3954 17.2923 21.7549L17.3448 21.6083L21.5126 11.7895ZM13.4792 8.96012C15.7066 8.96012 17.0196 9.94495 17.5506 11.4157L17.6665 11.7652C17.6925 11.8638 17.7059 11.9647 17.7059 12.0668C17.7059 12.6768 17.2524 13.1387 16.6766 13.2538C16.5497 13.2792 16.4406 13.2935 16.3192 13.2935C15.7874 13.2935 15.3124 13.01 15.0907 12.4203C14.9022 11.7489 14.4667 11.4001 13.4792 11.4001C12.393 11.4001 11.8925 11.8105 11.8925 12.3868C11.8925 12.9759 12.1161 13.2191 13.1093 13.4368L14.3105 13.6812C16.8775 14.2242 18.0525 15.2479 18.0525 17.4135C18.0525 19.6077 16.3184 21.0935 13.6792 21.0935C10.8586 21.0935 9.65388 19.9897 9.0388 17.9042L9.00087 17.7003L8.99916 17.6001L9.00819 17.4497C9.06715 16.965 9.41073 16.5975 9.89608 16.4306L10.0865 16.3785L10.2972 16.3505L10.3992 16.3468C10.9585 16.3468 11.4638 16.6596 11.6297 17.2405C11.9028 18.257 12.3089 18.6401 13.6125 18.6401C14.7917 18.6401 15.4125 18.1648 15.4125 17.4268C15.4125 16.7705 15.1343 16.4914 14.0047 16.2364L12.7043 15.9597C10.3456 15.4722 9.26585 14.4302 9.26585 12.3868C9.26585 10.3888 10.8563 8.96012 13.4792 8.96012Z" fill="#0A47F0"/>
</g>
</svg>
